<svg width="952" height="420" viewBox="0 0 952 420" fill="none" xmlns="http://www.w3.org/2000/svg">
<rect width="952" height="420" fill="#F4F4F4"/>
<rect opacity="0.2" y="336" width="843" height="1" fill="#333333"/>
<rect opacity="0.2" y="252" width="843" height="1" fill="#333333"/>
<rect opacity="0.2" y="168" width="843" height="1" fill="#333333"/>
<rect opacity="0.2" y="84" width="843" height="1" fill="#333333"/>
<path d="M875.633 334.982C875.633 334.244 875.898 333.631 876.43 333.143C876.961 332.65 877.625 332.404 878.422 332.404C879.176 332.404 879.814 332.629 880.338 333.078C880.861 333.527 881.123 334.076 881.123 334.725C881.123 335.193 880.994 335.645 880.736 336.078C880.479 336.512 879.994 337.096 879.283 337.83L877.145 340.039V340.062H881.264V341H875.686V340.273L878.662 337.139C879.229 336.541 879.604 336.088 879.787 335.779C879.975 335.471 880.068 335.141 880.068 334.789C880.068 334.383 879.904 334.037 879.576 333.752C879.252 333.467 878.857 333.324 878.393 333.324C877.896 333.324 877.482 333.482 877.15 333.799C876.818 334.115 876.652 334.51 876.652 334.982V334.988H875.633V334.982ZM885.389 341.141C884.58 341.141 883.904 340.912 883.361 340.455C882.822 339.998 882.531 339.41 882.488 338.691H883.525C883.572 339.141 883.77 339.508 884.117 339.793C884.465 340.074 884.893 340.215 885.4 340.215C885.975 340.215 886.441 340.035 886.801 339.676C887.164 339.316 887.346 338.852 887.346 338.281C887.346 337.711 887.164 337.244 886.801 336.881C886.441 336.514 885.98 336.33 885.418 336.33C885.023 336.33 884.666 336.414 884.346 336.582C884.025 336.75 883.779 336.982 883.607 337.279H882.617L883.08 332.545H887.92V333.482H883.947L883.689 336.236H883.713C883.904 335.982 884.166 335.783 884.498 335.639C884.834 335.494 885.203 335.422 885.605 335.422C886.418 335.422 887.086 335.689 887.609 336.225C888.137 336.756 888.4 337.432 888.4 338.252C888.4 339.1 888.119 339.793 887.557 340.332C886.994 340.871 886.271 341.141 885.389 341.141ZM893.445 341H892.438V334.684H893.662L895.947 339.646H895.994L898.285 334.684H899.463V341H898.449V336.506H898.402L896.34 340.824H895.555L893.492 336.506H893.445V341ZM901.977 341H900.969V334.684H901.977V339.424H902.023L905.275 334.684H906.283V341H905.275V336.26H905.229L901.977 341ZM912.008 341V338.141H908.797V341H907.789V334.684H908.797V337.297H912.008V334.684H913.016V341H912.008Z" fill="#333333"/>
<path d="M878.592 257.141C877.783 257.141 877.107 256.912 876.564 256.455C876.025 255.998 875.734 255.41 875.691 254.691H876.729C876.775 255.141 876.973 255.508 877.32 255.793C877.668 256.074 878.096 256.215 878.604 256.215C879.178 256.215 879.645 256.035 880.004 255.676C880.367 255.316 880.549 254.852 880.549 254.281C880.549 253.711 880.367 253.244 880.004 252.881C879.645 252.514 879.184 252.33 878.621 252.33C878.227 252.33 877.869 252.414 877.549 252.582C877.229 252.75 876.982 252.982 876.811 253.279H875.82L876.283 248.545H881.123V249.482H877.15L876.893 252.236H876.916C877.107 251.982 877.369 251.783 877.701 251.639C878.037 251.494 878.406 251.422 878.809 251.422C879.621 251.422 880.289 251.689 880.812 252.225C881.34 252.756 881.604 253.432 881.604 254.252C881.604 255.1 881.322 255.793 880.76 256.332C880.197 256.871 879.475 257.141 878.592 257.141ZM885.664 257.141C884.684 257.141 883.918 256.75 883.367 255.969C882.82 255.184 882.547 254.117 882.547 252.77C882.547 251.434 882.822 250.373 883.373 249.588C883.928 248.799 884.691 248.404 885.664 248.404C886.637 248.404 887.396 248.797 887.943 249.582C888.494 250.363 888.77 251.424 888.77 252.764C888.77 254.111 888.496 255.178 887.949 255.963C887.402 256.748 886.641 257.141 885.664 257.141ZM884.146 255.295C884.506 255.912 885.012 256.221 885.664 256.221C886.316 256.221 886.82 255.914 887.176 255.301C887.531 254.684 887.709 253.84 887.709 252.77C887.709 251.715 887.529 250.879 887.17 250.262C886.811 249.641 886.309 249.33 885.664 249.33C885.02 249.33 884.516 249.641 884.152 250.262C883.789 250.883 883.607 251.717 883.607 252.764C883.607 253.834 883.787 254.678 884.146 255.295ZM893.926 257H892.918V250.684H894.143L896.428 255.646H896.475L898.766 250.684H899.943V257H898.93V252.506H898.883L896.82 256.824H896.035L893.973 252.506H893.926V257ZM902.457 257H901.449V250.684H902.457V255.424H902.504L905.756 250.684H906.764V257H905.756V252.26H905.709L902.457 257ZM912.488 257V254.141H909.277V257H908.27V250.684H909.277V253.297H912.488V250.684H913.496V257H912.488Z" fill="#333333"/>
<path d="M877.842 173V165.664H877.818L875.58 167.275V166.162L877.83 164.545H878.861V173H877.842ZM888.711 173H887.703V170.123H887.656C887.184 170.541 886.617 170.75 885.957 170.75C885.273 170.75 884.738 170.545 884.352 170.135C883.969 169.721 883.777 169.172 883.777 168.488V166.684H884.785V168.488C884.785 168.91 884.895 169.244 885.113 169.49C885.332 169.732 885.639 169.854 886.033 169.854C886.268 169.854 886.486 169.824 886.689 169.766C886.896 169.707 887.066 169.631 887.199 169.537C887.332 169.439 887.436 169.354 887.51 169.279C887.588 169.205 887.652 169.131 887.703 169.057V166.684H888.711V173ZM895.174 173V165.664H895.15L892.912 167.275V166.162L895.162 164.545H896.193V173H895.174ZM901.244 173.141C900.436 173.141 899.76 172.912 899.217 172.455C898.678 171.998 898.387 171.41 898.344 170.691H899.381C899.428 171.141 899.625 171.508 899.973 171.793C900.32 172.074 900.748 172.215 901.256 172.215C901.83 172.215 902.297 172.035 902.656 171.676C903.02 171.316 903.201 170.852 903.201 170.281C903.201 169.711 903.02 169.244 902.656 168.881C902.297 168.514 901.836 168.33 901.273 168.33C900.879 168.33 900.521 168.414 900.201 168.582C899.881 168.75 899.635 168.982 899.463 169.279H898.473L898.936 164.545H903.775V165.482H899.803L899.545 168.236H899.568C899.76 167.982 900.021 167.783 900.354 167.639C900.689 167.494 901.059 167.422 901.461 167.422C902.273 167.422 902.941 167.689 903.465 168.225C903.992 168.756 904.256 169.432 904.256 170.252C904.256 171.1 903.975 171.793 903.412 172.332C902.85 172.871 902.127 173.141 901.244 173.141ZM909.301 173H908.293V166.684H909.518L911.803 171.646H911.85L914.141 166.684H915.318V173H914.305V168.506H914.258L912.195 172.824H911.41L909.348 168.506H909.301V173ZM917.832 173H916.824V166.684H917.832V171.424H917.879L921.131 166.684H922.139V173H921.131V168.26H921.084L917.832 173ZM927.863 173V170.141H924.652V173H923.645V166.684H924.652V169.297H927.863V166.684H928.871V173H927.863Z" fill="#333333"/>
<path d="M877.842 89V81.6641H877.818L875.58 83.2754V82.1621L877.83 80.5449H878.861V89H877.842ZM888.711 89H887.703V86.123H887.656C887.184 86.541 886.617 86.75 885.957 86.75C885.273 86.75 884.738 86.5449 884.352 86.1348C883.969 85.7207 883.777 85.1719 883.777 84.4883V82.6836H884.785V84.4883C884.785 84.9102 884.895 85.2441 885.113 85.4902C885.332 85.7324 885.639 85.8535 886.033 85.8535C886.268 85.8535 886.486 85.8242 886.689 85.7656C886.896 85.707 887.066 85.6309 887.199 85.5371C887.332 85.4395 887.436 85.3535 887.51 85.2793C887.588 85.2051 887.652 85.1309 887.703 85.0566V82.6836H888.711V89ZM897.037 89V87.2422H892.789V86.2871C893.152 85.6113 893.613 84.8398 894.172 83.9727C894.734 83.1055 895.51 81.9629 896.498 80.5449H898.057V86.3164H899.252V87.2422H898.057V89H897.037ZM893.832 86.293V86.3164H897.037V81.4238H897.02C895.539 83.5371 894.477 85.1602 893.832 86.293ZM903.242 89.1406C902.262 89.1406 901.496 88.75 900.945 87.9688C900.398 87.1836 900.125 86.1172 900.125 84.7695C900.125 83.4336 900.4 82.373 900.951 81.5879C901.506 80.7988 902.27 80.4043 903.242 80.4043C904.215 80.4043 904.975 80.7969 905.521 81.582C906.072 82.3633 906.348 83.4238 906.348 84.7637C906.348 86.1113 906.074 87.1777 905.527 87.9629C904.98 88.748 904.219 89.1406 903.242 89.1406ZM901.725 87.2949C902.084 87.9121 902.59 88.2207 903.242 88.2207C903.895 88.2207 904.398 87.9141 904.754 87.3008C905.109 86.6836 905.287 85.8398 905.287 84.7695C905.287 83.7148 905.107 82.8789 904.748 82.2617C904.389 81.6406 903.887 81.3301 903.242 81.3301C902.598 81.3301 902.094 81.6406 901.73 82.2617C901.367 82.8828 901.186 83.7168 901.186 84.7637C901.186 85.834 901.365 86.6777 901.725 87.2949ZM911.504 89H910.496V82.6836H911.721L914.006 87.6465H914.053L916.344 82.6836H917.521V89H916.508V84.5059H916.461L914.398 88.8242H913.613L911.551 84.5059H911.504V89ZM920.035 89H919.027V82.6836H920.035V87.4238H920.082L923.334 82.6836H924.342V89H923.334V84.2598H923.287L920.035 89ZM930.066 89V86.1406H926.855V89H925.848V82.6836H926.855V85.2969H930.066V82.6836H931.074V89H930.066Z" fill="#333333"/>
</svg>
